{
  "accessors": [
    {
      "bufferView": 2,
      "componentType": 5126,
      "count": 487,
      "max": [
        0.031049124896526337,
        0.047992680221796036,
        0.02234341949224472
      ],
      "min": [
        -0.087774164974689484,
        -0.14032813906669617,
        0
      ],
      "type": "VEC3"
    },
    {
      "bufferView": 2,
      "byteOffset": 5844,
      "componentType": 5126,
      "count": 487,
      "max": [
        1,
        0.92206889390945435,
        1
      ],
      "min": [
        -0.99631685018539429,
        -0.57355737686157227,
        -0.817676842212677
      ],
      "type": "VEC3"
    },
    {
      "bufferView": 3,
      "componentType": 5126,
      "count": 487,
      "max": [
        0.99941712617874146,
        0.82548576593399048,
        0.99684655666351318,
        1
      ],
      "min": [
        -0.99939769506454468,
        -1,
        -0.99763768911361694,
        -1
      ],
      "type": "VEC4"
    },
    {
      "bufferView": 3,
      "byteOffset": 7792,
      "componentType": 5126,
      "count": 487,
      "max": [
        1,
        1,
        1,
        1
      ],
      "min": [
        1,
        1,
        1,
        1
      ],
      "type": "VEC4"
    },
    {
      "bufferView": 1,
      "componentType": 5126,
      "count": 487,
      "max": [
        0.88263171911239624,
        0.53293848037719727
      ],
      "min": [
        -1.000870943069458,
        -0.44847232103347778
      ],
      "type": "VEC2"
    },
    {
      "bufferView": 0,
      "componentType": 5125,
      "count": 2247,
      "max": [
        486
      ],
      "min": [
        0
      ],
      "type": "SCALAR"
    },
    {
      "bufferView": 2,
      "byteOffset": 11688,
      "componentType": 5126,
      "count": 86,
      "max": [
        0.037367761135101318,
        0.039797298610210419,
        0.022643709555268288
      ],
      "min": [
        -0.097724936902523041,
        -0.1429283618927002,
        0.0038997095543891191
      ],
      "type": "VEC3"
    },
    {
      "bufferView": 2,
      "byteOffset": 12720,
      "componentType": 5126,
      "count": 86,
      "max": [
        1,
        0.99970149993896484,
        1
      ],
      "min": [
        -1,
        -1,
        -1
      ],
      "type": "VEC3"
    },
    {
      "bufferView": 3,
      "byteOffset": 15584,
      "componentType": 5126,
      "count": 86,
      "max": [
        1,
        0.99971920251846313,
        1,
        1
      ],
      "min": [
        -0.99981623888015747,
        -1,
        -1,
        -1
      ],
      "type": "VEC4"
    },
    {
      "bufferView": 3,
      "byteOffset": 16960,
      "componentType": 5126,
      "count": 86,
      "max": [
        1,
        1,
        1,
        1
      ],
      "min": [
        1,
        1,
        1,
        1
      ],
      "type": "VEC4"
    },
    {
      "bufferView": 1,
      "byteOffset": 3896,
      "componentType": 5126,
      "count": 86,
      "max": [
        -0.014580930583178997,
        0.98908138275146484
      ],
      "min": [
        -1,
        -1
      ],
      "type": "VEC2"
    },
    {
      "bufferView": 0,
      "byteOffset": 8988,
      "componentType": 5125,
      "count": 153,
      "max": [
        85
      ],
      "min": [
        0
      ],
      "type": "SCALAR"
    },
    {
      "bufferView": 2,
      "byteOffset": 13752,
      "componentType": 5126,
      "count": 30,
      "max": [
        -0.046486645936965942,
        -0.060845602303743362,
        0.03214297816157341
      ],
      "min": [
        -0.096209362149238586,
        -0.11844606697559357,
        0.018347684293985367
      ],
      "type": "VEC3"
    },
    {
      "bufferView": 2,
      "byteOffset": 14112,
      "componentType": 5126,
      "count": 30,
      "max": [
        1,
        0.92387956380844116,
        1
      ],
      "min": [
        -0.80066508054733276,
        -0.679360032081604,
        -0.99762392044067383
      ],
      "type": "VEC3"
    },
    {
      "bufferView": 3,
      "byteOffset": 18336,
      "componentType": 5126,
      "count": 30,
      "max": [
        0.99843502044677734,
        0.73030632734298706,
        0.95155602693557739,
        1
      ],
      "min": [
        -0.59357500076293945,
        -0.99992740154266357,
        -0.99935758113861084,
        -1
      ],
      "type": "VEC4"
    },
    {
      "bufferView": 3,
      "byteOffset": 18816,
      "componentType": 5126,
      "count": 30,
      "max": [
        1,
        1,
        1,
        1
      ],
      "min": [
        1,
        1,
        1,
        1
      ],
      "type": "VEC4"
    },
    {
      "bufferView": 1,
      "byteOffset": 4584,
      "componentType": 5126,
      "count": 30,
      "max": [
        -0.088850952684879303,
        -1.2582398653030396
      ],
      "min": [
        -0.25478255748748779,
        -2.0505766868591309
      ],
      "type": "VEC2"
    },
    {
      "bufferView": 0,
      "byteOffset": 9600,
      "componentType": 5125,
      "count": 120,
      "max": [
        29
      ],
      "min": [
        0
      ],
      "type": "SCALAR"
    },
    {
      "bufferView": 2,
      "byteOffset": 14472,
      "componentType": 5126,
      "count": 138,
      "max": [
        0.017401361837983131,
        0.016786925494670868,
        0.031574610620737076
      ],
      "min": [
        -0.094787061214447021,
        -0.11631367355585098,
        0.019399868324398994
      ],
      "type": "VEC3"
    },
    {
      "bufferView": 2,
      "byteOffset": 16128,
      "componentType": 5126,
      "count": 138,
      "max": [
        1,
        1,
        1
      ],
      "min": [
        -0.91615527868270874,
        -0.82874780893325806,
        -0.99998301267623901
      ],
      "type": "VEC3"
    },
    {
      "bufferView": 3,
      "byteOffset": 19296,
      "componentType": 5126,
      "count": 138,
      "max": [
        0.76828444004058838,
        1,
        0.9187779426574707,
        1
      ],
      "min": [
        -1,
        -0.79535466432571411,
        -0.90945345163345337,
        -1
      ],
      "type": "VEC4"
    },
    {
      "bufferView": 3,
      "byteOffset": 21504,
      "componentType": 5126,
      "count": 138,
      "max": [
        1,
        1,
        1,
        1
      ],
      "min": [
        1,
        1,
        1,
        1
      ],
      "type": "VEC4"
    },
    {
      "bufferView": 1,
      "byteOffset": 4824,
      "componentType": 5126,
      "count": 138,
      "max": [
        1.3315565586090088,
        1.3700459003448486
      ],
      "min": [
        -1.1241918802261353,
        -0.9686768651008606
      ],
      "type": "VEC2"
    },
    {
      "bufferView": 0,
      "byteOffset": 10080,
      "componentType": 5125,
      "count": 246,
      "max": [
        137
      ],
      "min": [
        0
      ],
      "type": "SCALAR"
    }
  ],
  "asset": {
    "generator": "Sketchfab (OSG glTF plugin)",
    "version": "2.0"
  },
  "bufferViews": [
    {
      "buffer": 0,
      "byteLength": 11064,
      "byteOffset": 0,
      "name": "floatBufferViews",
      "target": 34963
    },
    {
      "buffer": 0,
      "byteLength": 5928,
      "byteOffset": 11064,
      "byteStride": 8,
      "name": "floatBufferViews",
      "target": 34962
    },
    {
      "buffer": 0,
      "byteLength": 17784,
      "byteOffset": 16992,
      "byteStride": 12,
      "name": "floatBufferViews",
      "target": 34962
    },
    {
      "buffer": 0,
      "byteLength": 23712,
      "byteOffset": 34776,
      "byteStride": 16,
      "name": "floatBufferViews",
      "target": 34962
    }
  ],
  "buffers": [
    {
      "byteLength": 58488,
      "uri": "scene.bin"
    }
  ],
  "images": [
    {
      "uri": "textures/_10_baseColor.png"
    },
    {
      "uri": "textures/_10_emissive.png"
    },
    {
      "uri": "textures/_11_baseColor.png"
    },
    {
      "uri": "textures/_11_emissive.png"
    }
  ],
  "materials": [
    {
      "doubleSided": true,
      "emissiveFactor": [
        0,
        0,
        0
      ],
      "emissiveTexture": {
        "index": 1,
        "texCoord": 0
      },
      "name": "_10",
      "pbrMetallicRoughness": {
        "baseColorFactor": [
          1,
          1,
          1,
          1
        ],
        "baseColorTexture": {
          "index": 0,
          "texCoord": 0
        },
        "metallicFactor": 0,
        "roughnessFactor": 0.59999999999999998
      }
    },
    {
      "doubleSided": true,
      "emissiveFactor": [
        0,
        0,
        0
      ],
      "emissiveTexture": {
        "index": 3,
        "texCoord": 0
      },
      "name": "_11",
      "pbrMetallicRoughness": {
        "baseColorFactor": [
          1,
          1,
          1,
          1
        ],
        "baseColorTexture": {
          "index": 2,
          "texCoord": 0
        },
        "metallicFactor": 0,
        "roughnessFactor": 0.59999999999999998
      }
    }
  ],
  "meshes": [
    {
      "primitives": [
        {
          "attributes": {
            "COLOR_0": 3,
            "NORMAL": 1,
            "POSITION": 0,
            "TANGENT": 2,
            "TEXCOORD_0": 4
          },
          "indices": 5,
          "material": 0,
          "mode": 4
        }
      ]
    },
    {
      "primitives": [
        {
          "attributes": {
            "COLOR_0": 9,
            "NORMAL": 7,
            "POSITION": 6,
            "TANGENT": 8,
            "TEXCOORD_0": 10
          },
          "indices": 11,
          "material": 1,
          "mode": 4
        }
      ]
    },
    {
      "primitives": [
        {
          "attributes": {
            "COLOR_0": 15,
            "NORMAL": 13,
            "POSITION": 12,
            "TANGENT": 14,
            "TEXCOORD_0": 16
          },
          "indices": 17,
          "material": 1,
          "mode": 4
        }
      ]
    },
    {
      "primitives": [
        {
          "attributes": {
            "COLOR_0": 21,
            "NORMAL": 19,
            "POSITION": 18,
            "TANGENT": 20,
            "TEXCOORD_0": 22
          },
          "indices": 23,
          "material": 0,
          "mode": 4
        }
      ]
    }
  ],
  "nodes": [
    {
      "children": [
        1
      ],
      "name": "RootNode (gltf orientation matrix)",
      "rotation": [
        -0.70710678118654746,
        -0,
        -0,
        0.70710678118654757
      ]
    },
    {
      "children": [
        2
      ],
      "name": "RootNode (model correction matrix)"
    },
    {
      "children": [
        3
      ],
      "name": "notebook and pen.3ds"
    },
    {
      "children": [
        4
      ],
      "name": "Model"
    },
    {
      "children": [
        5,
        11
      ],
      "name": "bloknot1"
    },
    {
      "children": [
        8
      ],
      "name": "Group2"
    },
    {
      "mesh": 0,
      "name": ""
    },
    {
      "mesh": 1,
      "name": ""
    },
    {
      "children": [
        6,
        7
      ],
      "name": "Geode"
    },
    {
      "mesh": 2,
      "name": ""
    },
    {
      "mesh": 3,
      "name": ""
    },
    {
      "children": [
        9,
        10
      ],
      "name": "Geode"
    }
  ],
  "samplers": [
    {
      "magFilter": 9729,
      "minFilter": 9987,
      "wrapS": 10497,
      "wrapT": 10497
    }
  ],
  "scene": 0,
  "scenes": [
    {
      "name": "OSG_Scene",
      "nodes": [
        0
      ]
    }
  ],
  "textures": [
    {
      "sampler": 0,
      "source": 0
    },
    {
      "sampler": 0,
      "source": 1
    },
    {
      "sampler": 0,
      "source": 2
    },
    {
      "sampler": 0,
      "source": 3
    }
  ]
}

